<?xml version="1.0" encoding="utf-8"?>
<!-- Generator: Adobe Illustrator 21.0.0, SVG Export Plug-In . SVG Version: 6.00 Build 0)  -->
<svg version="1.1" xmlns="http://www.w3.org/2000/svg" xmlns:xlink="http://www.w3.org/1999/xlink" x="0px" y="0px"
	 viewBox="0 0 1773.2 1000" style="enable-background:new 0 0 1773.2 1000;" xml:space="preserve">
<style type="text/css">
	.st0{display:none;}
	.st1{display:inline;}
	.st2{display:inline;stroke:#FFFFFF;stroke-miterlimit:10;}
	.st3{display:none;fill:none;stroke:#0D223F;stroke-width:3;stroke-miterlimit:10;}
	.st4{fill:#266FF2;}
	.st5{display:none;fill:#D4DCE8;}
	.st6{fill:#C6D2E5;}
	.st7{opacity:0.38;fill:#160D00;}
	.st8{fill:#B4CCFA;}
	.st9{fill:#E6EEFB;}
	.st10{fill:#B7CFFD;}
	.st11{font-family:'Mouser';}
	.st12{font-size:15px;}
	.st13{fill:#0062FF;}
	.st14{opacity:0.7;fill:#FFFFFF;}
	.st15{opacity:0.1;}
	.st16{fill:#FFFFFF;}
	.st17{fill:#ECECEC;}
	.st18{fill:#ECECEC;stroke:url(#SVGID_3_);stroke-width:2;stroke-miterlimit:10;}
	.st19{fill:#F0F0F0;}
	.st20{fill:#E1E1E1;}
	.st21{fill:none;stroke:#E7E7E7;stroke-miterlimit:10;}
	.st22{fill:#E1E1E1;enable-background:new    ;}
	.st23{opacity:0.8;fill:#E1E1E1;}
	.st24{fill:#F5F5F5;}
	.st25{fill:#FAFAFA;}
	.st26{fill:#161B2B;}
	.st27{opacity:0.2;fill:#FFFFFF;}
	.st28{opacity:0.4;fill:#FFFFFF;}
	.st29{opacity:0.6;fill:#FFFFFF;enable-background:new    ;}
	.st30{opacity:0.6;fill:#FFFFFF;}
	.st31{opacity:0.1;enable-background:new    ;}
	.st32{opacity:0.2;enable-background:new    ;}
	.st33{opacity:0.3;enable-background:new    ;}
	.st34{fill:#FCB373;}
	.st35{fill:#5E0002;}
	.st36{fill:none;stroke:#161B2B;stroke-width:0.5;stroke-linecap:round;stroke-linejoin:round;stroke-miterlimit:10;}
	.st37{opacity:0.2;fill:#FFFFFF;enable-background:new    ;}
	.st38{opacity:0.3;fill:#FFFFFF;enable-background:new    ;}
	.st39{fill:#CC7A63;}
	.st40{opacity:0.4;fill:#FFFFFF;enable-background:new    ;}
	.st41{opacity:0.4;enable-background:new    ;}
	.st42{fill:#B84D3C;}
	.st43{fill:none;stroke:#FFFFFF;stroke-width:2;stroke-linecap:round;stroke-linejoin:round;stroke-miterlimit:10;}
	.st44{opacity:0.7;fill:url(#SVGID_4_);}
	.st45{opacity:0.7;fill:#EF903A;}
	.st46{opacity:0.9;fill:url(#SVGID_5_);}
	.st47{opacity:0.6;fill:url(#SVGID_6_);}
	.st48{opacity:0.4;fill:url(#SVGID_7_);}
	.st49{fill:#E5EAEE;}
	.st50{fill:#183D67;}
	.st51{fill:#DEE7F8;}
	.st52{fill:#A0B9D8;}
	.st53{fill:#649BFF;}
	.st54{fill:#5F96F1;}
	.st55{fill:none;stroke:#FFFFFF;stroke-miterlimit:10;}
	.st56{fill:#E3E8EC;}
	.st57{fill:#A6B5CA;}
	.st58{opacity:0.64;fill:#173D64;}
	.st59{fill:#8BA0C6;}
	.st60{fill:#E0E7F7;}
	.st61{fill:url(#SVGID_8_);}
	.st62{fill:url(#SVGID_9_);}
	.st63{fill:#9DB5D1;}
	.st64{fill:#9EB5D4;}
	.st65{fill:#0B1E3F;}
	.st66{fill:#183A60;}
	.st67{fill:#1A3F69;}
	.st68{fill:#FFB8A4;}
	.st69{fill:#052441;}
</style>
<g id="Layer_1" class="st0">
	<g class="st1">
		<g>
			<defs>
				<rect id="SVGID_1_" x="43.2" width="1000" height="1000"/>
			</defs>
			<clipPath id="SVGID_2_">
				<use xlink:href="#SVGID_1_"  style="overflow:visible;"/>
			</clipPath>
			<g style="clip-path:url(#SVGID_2_);">
				
					<image style="overflow:visible;" width="1000" height="1000" xlink:href="5EEA602B.jpg"  transform="matrix(1 0 0 1 43.2352 0)">
				</image>
			</g>
		</g>
	</g>
</g>
<g id="Layer_9" class="st0">
	<rect class="st2" width="1773.2" height="1000"/>
</g>
<g id="Layer_7">
	<line class="st3" x1="881.3" y1="290.5" x2="247.2" y2="53"/>
	<line class="st3" x1="876.1" y1="341.3" x2="242.1" y2="103.8"/>
	<line class="st3" x1="869.8" y1="389.6" x2="235.7" y2="152"/>
	<line class="st3" x1="863.2" y1="423.4" x2="229.2" y2="185.9"/>
	<line class="st3" x1="853.1" y1="506.8" x2="219.1" y2="269.2"/>
	<path class="st4" d="M341,120.6l464.4,169.4l0.4-17.1c0,0,4.1-9.2-5.2-12.7c-9.3-3.5-453.7-170-453.7-170s-6.7,1.5-5.4,9.5
		S341,120.6,341,120.6z"/>
	<polygon class="st5" points="559.1,320 381.3,231.1 381.3,351.9 357.4,333.8 357.4,433.4 559.1,509.1 	"/>
	<polygon class="st6" points="420.1,346.6 497.5,376.6 497.5,458.6 420.1,429.4 	"/>
	<polygon class="st7" points="497.5,376.6 500.9,375.8 500.9,456.7 497.5,458.6 	"/>
	<path class="st8" d="M427.9,305.2c0,0-17.5-24.2,0-29.6l98.8,36.8c0,0,18.1,25.3-7.6,25.4L427.9,305.2z"/>
	<path class="st8" d="M371.6,238.6c0,0-17.5-24.2,0-29.6l98.8,36.8c0,0,18.1,25.3-7.6,25.4L371.6,238.6z"/>
	<path class="st8" d="M367.7,205.4c0,0-8.8-12.1,0-14.8l49.4,18.4c0,0,9,12.7-3.8,12.7L367.7,205.4z"/>
	<polygon class="st9" points="624,246.8 624,280.8 835.3,354.6 835.3,325.2 	"/>
	<text transform="matrix(0.9727 0.2322 -0.2322 0.9727 637.2508 276.6023)" class="st10 st11 st12">Search</text>
</g>
<g id="Layer_6">
	<g>
		<path class="st13" d="M1541.2,302.9h-10.3h-464.5h-10.3c-6.9,0-12.4,5.6-12.4,12.4v328.4c0,6.9,5.6,12.4,12.4,12.4h10.3h464.5
			h10.3c6.9,0,12.4-5.6,12.4-12.4V315.4C1553.6,308.5,1548,302.9,1541.2,302.9z"/>
		<path class="st14" d="M1541.2,302.9h-10.3h-464.5h-10.3c-6.9,0-12.4,5.6-12.4,12.4v328.4c0,6.9,5.6,12.4,12.4,12.4h10.3h464.5
			h10.3c6.9,0,12.4-5.6,12.4-12.4V315.4C1553.6,308.5,1548,302.9,1541.2,302.9z"/>
	</g>
	<rect x="1060" y="315.1" class="st13" width="477.3" height="316.7"/>
	<g class="st15">
	</g>
</g>
<g id="Layer_3">
	<g>
		<polygon class="st17" points="1769.2,713.8 836.2,626.6 836.2,626.1 1769.2,713.3 		"/>
		<rect x="1612.5" y="743.6" class="st17" width="62.3" height="0.5"/>
		<rect x="1435.1" y="748.7" class="st17" width="16.4" height="0.5"/>
		<rect x="1574.5" y="726.1" class="st17" width="36.1" height="0.5"/>
		<rect x="926.8" y="729.3" class="st17" width="81.3" height="0.5"/>
		<rect x="1024.9" y="729.3" class="st17" width="11.9" height="0.5"/>
		<rect x="1075.5" y="737.2" class="st17" width="176.3" height="0.5"/>
		
			<linearGradient id="SVGID_3_" gradientUnits="userSpaceOnUse" x1="292.416" y1="319.5033" x2="845.1976" y2="319.5033" gradientTransform="matrix(0.9402 0.1745 -0.131 0.904 76.2561 -33.5042)">
			<stop  offset="0" style="stop-color:#3C7BED"/>
			<stop  offset="1" style="stop-color:#2567DF"/>
		</linearGradient>
		<path class="st18" d="M806.3,273.2l-8.9,341.5c-2.6,4.5-9,5.7-14.3,2.6L348.6,454.1c-5.3-3.1-7.6-9.2-5-13.7l-2.6-346
			c2.6-4.5,9-5.7,14.3-2.6l445.9,167.7C806.6,262.6,808.8,268.7,806.3,273.2z M344.1,440.6c-2.5,4.3-0.3,10.2,4.8,13.1L783.2,617
			c5.1,2.9,11.2,1.8,13.7-2.5l8.9-341.5c2.5-4.3,0.3-10.2-4.8-13.1L355.2,92.2c-5.1-2.9-11.2-1.8-13.7,2.5L344.1,440.6z"/>
	</g>
	<g>
		<path class="st19" d="M1521.1,463c0-5.1-4.1-9.2-9.2-9.2c-0.9,0-1.8,0.1-2.6,0.4c0.1-0.9,0.2-1.9,0.2-2.8
			c0-10.8-8.7-19.5-19.5-19.5c-1.2,0-2.4,0.1-3.6,0.3c-3-4.9-8.4-8.2-14.5-8.2c-9.3,0-16.9,7.5-17,16.8c-0.1,0-0.2,0-0.3,0
			c-8.7,0-15.7,7-15.7,15.7c0,8.7,7,15.7,15.7,15.7h57.7l0,0C1517.1,472.1,1521.1,468,1521.1,463z"/>
		<polygon class="st20" points="1487.3,476.8 1487.3,458.8 1472.7,458.8 1472.7,476.8 1460.7,476.8 1480,493 1499.2,476.8 		"/>
	</g>
	<g>
		<path class="st19" d="M896.4,211.7c0-5.6-5-10.2-11.1-10.2c-1.1,0-2.2,0.2-3.2,0.4c0.2-1,0.2-2.1,0.2-3.1
			c0-11.9-10.5-21.5-23.5-21.5c-1.5,0-2.9,0.1-4.3,0.4c-3.6-5.4-10.1-9-17.5-9c-11.2,0-20.3,8.3-20.5,18.5c-0.1,0-0.2,0-0.3,0
			c-10.4,0-18.9,7.8-18.9,17.3c0,9.6,8.5,17.3,18.9,17.3h69.4l0,0C891.6,221.7,896.4,217.2,896.4,211.7z"/>
		<polygon class="st20" points="838.1,212.5 838.1,232.2 855.7,232.2 855.7,212.5 870,212.5 846.9,194.5 823.7,212.5 		"/>
	</g>
	<g>
		<polyline class="st21" points="713.4,774.2 713.4,723 870.3,723 870.3,773.7 		"/>
		<line class="st21" x1="794.2" y1="674.7" x2="794.2" y2="774.1"/>
		<g>
			<path class="st19" d="M820.9,655.1h-53.4c-1.2,0-2.2,1-2.2,2.2v31.8c0,1.2,1,2.2,2.2,2.2h53.4c1.2,0,2.2-1,2.2-2.2v-31.8
				C823.1,656.1,822.1,655.1,820.9,655.1z"/>
			<path class="st20" d="M820.3,689.9H768c-0.4,0-0.8-0.4-0.8-0.8v-28.9c0-0.4,0.4-0.8,0.8-0.8h52.3c0.4,0,0.8,0.4,0.8,0.8v28.9
				C821.1,689.6,820.8,689.9,820.3,689.9z"/>
		</g>
		<g>
			<path class="st19" d="M740.1,769.6h-53.4c-1.2,0-2.2,1-2.2,2.2v31.8c0,1.2,1,2.2,2.2,2.2h53.4c1.2,0,2.2-1,2.2-2.2v-31.8
				C742.3,770.6,741.3,769.6,740.1,769.6z"/>
			<path class="st20" d="M739.5,804.3h-52.3c-0.4,0-0.8-0.4-0.8-0.8v-28.9c0-0.4,0.4-0.8,0.8-0.8h52.3c0.4,0,0.8,0.4,0.8,0.8v28.9
				C740.3,804,740,804.3,739.5,804.3z"/>
		</g>
		<g>
			<path class="st19" d="M820.9,769.6h-53.4c-1.2,0-2.2,1-2.2,2.2v31.8c0,1.2,1,2.2,2.2,2.2h53.4c1.2,0,2.2-1,2.2-2.2v-31.8
				C823.1,770.6,822.1,769.6,820.9,769.6z"/>
			<path class="st20" d="M820.3,804.3H768c-0.4,0-0.8-0.4-0.8-0.8v-28.9c0-0.4,0.4-0.8,0.8-0.8h52.3c0.4,0,0.8,0.4,0.8,0.8v28.9
				C821.1,804,820.8,804.3,820.3,804.3z"/>
		</g>
		<g>
			<path class="st19" d="M897.2,769.6h-53.4c-1.2,0-2.2,1-2.2,2.2v31.8c0,1.2,1,2.2,2.2,2.2h53.4c1.2,0,2.2-1,2.2-2.2v-31.8
				C899.4,770.6,898.4,769.6,897.2,769.6z"/>
			<path class="st20" d="M896.6,804.3h-52.3c-0.4,0-0.8-0.4-0.8-0.8v-28.9c0-0.4,0.4-0.8,0.8-0.8h52.3c0.4,0,0.8,0.4,0.8,0.8v28.9
				C897.4,804,897,804.3,896.6,804.3z"/>
		</g>
		<path class="st22" d="M793.1,707.4l-14.5,14.5c-0.6,0.6-0.6,1.6,0,2.1l14.5,14.5c0.6,0.6,1.6,0.6,2.1,0l14.5-14.5
			c0.6-0.6,0.6-1.6,0-2.1l-14.5-14.5C794.7,706.8,793.7,706.8,793.1,707.4z"/>
	</g>
	<g>
		<path class="st23" d="M1172.4,466.6h-45.2c-1.1,0-2-0.9-2-2v-25.5c0-1.1,0.9-2,2-2h45.2c1.1,0,2,0.9,2,2v25.5
			C1174.4,465.8,1173.5,466.6,1172.4,466.6z"/>
		<path class="st20" d="M1138,523h-35.8c-1.1,0-2-0.9-2-2v-18.5c0-1.1,0.9-2,2-2h35.8c1.1,0,2,0.9,2,2V521
			C1139.9,522.1,1139.1,523,1138,523z"/>
		<path class="st20" d="M1198.2,523h-35.8c-1.1,0-2-0.9-2-2v-18.5c0-1.1,0.9-2,2-2h35.8c1.1,0,2,0.9,2,2V521
			C1200.2,522.1,1199.3,523,1198.2,523z"/>
		<g>
			<path class="st20" d="M1161.2,567.2h-16.9c-1.1,0-2-0.9-2-2V550c0-1.1,0.9-2,2-2h16.9c1.1,0,2,0.9,2,2v15.2
				C1163.2,566.3,1162.3,567.2,1161.2,567.2z"/>
			<path class="st20" d="M1187.7,567.2h-16.9c-1.1,0-2-0.9-2-2V550c0-1.1,0.9-2,2-2h16.9c1.1,0,2,0.9,2,2v15.2
				C1189.6,566.3,1188.7,567.2,1187.7,567.2z"/>
			<path class="st20" d="M1214.1,567.2h-16.9c-1.1,0-2-0.9-2-2V550c0-1.1,0.9-2,2-2h16.9c1.1,0,2,0.9,2,2v15.2
				C1216.1,566.3,1215.2,567.2,1214.1,567.2z"/>
		</g>
		<path class="st20" d="M1099.9,567.2H1083c-1.1,0-2-0.9-2-2V550c0-1.1,0.9-2,2-2h16.9c1.1,0,2,0.9,2,2v15.2
			C1101.9,566.3,1101,567.2,1099.9,567.2z"/>
		<path class="st20" d="M1128.7,567.2h-16.9c-1.1,0-2-0.9-2-2V550c0-1.1,0.9-2,2-2h16.9c1.1,0,2,0.9,2,2v15.2
			C1130.6,566.3,1129.8,567.2,1128.7,567.2z"/>
		<g>
			<polygon class="st20" points="1178.1,500.5 1180.3,500.5 1180.3,484.7 1151,484.7 1151,466.6 1148.7,466.6 1148.7,484.7 
				1119.4,484.7 1119.4,500.5 1121.6,500.5 1121.6,487 1178.1,487 			"/>
			<polygon class="st20" points="1119.4,536.6 1090,536.6 1090,547.9 1092.3,547.9 1092.3,538.9 1119.4,538.9 1119.4,547.9 
				1121.6,547.9 1121.6,523.1 1119.4,523.1 			"/>
			<polygon class="st20" points="1180.3,538.9 1180.3,523.1 1178.1,523.1 1178.1,538.9 1151,538.9 1151,547.9 1153.2,547.9 
				1153.2,541.1 1178.1,541.1 1178.1,547.9 1180.3,547.9 1180.3,541.1 1205.2,541.1 1205.2,547.9 1207.4,547.9 1207.4,538.9 			"/>
		</g>
	</g>
	<g>
		<path class="st24" d="M1348.7,184.5V198l7,0.7c0.9,4.5,2.7,8.7,5.2,12.5l-4.5,5.4l9.6,9.6l5.4-4.5c3.7,2.5,8,4.3,12.5,5.2l0.7,7
			h13.5l0.7-7c4.5-0.9,8.7-2.7,12.5-5.2l5.4,4.5l9.6-9.6l-4.5-5.4c2.5-3.7,4.3-8,5.2-12.5l7-0.7v-13.5l-7-0.7
			c-0.9-4.5-2.7-8.7-5.2-12.5l4.5-5.4l-9.6-9.6l-5.4,4.5c-3.7-2.5-8-4.3-12.5-5.2l-0.7-7h-13.5l-0.7,7c-4.5,0.9-8.7,2.7-12.5,5.2
			l-5.4-4.5l-9.6,9.6l4.5,5.4c-2.5,3.7-4.3,8-5.2,12.5L1348.7,184.5z M1391.2,173c10.1,0,18.3,8.2,18.3,18.3
			c0,10.1-8.2,18.3-18.3,18.3c-10.1,0-18.3-8.2-18.3-18.3C1372.9,181.2,1381.1,173,1391.2,173z"/>
		<path class="st24" d="M1357.4,283.2c3.6-0.7,6.9-2.1,9.8-4.1l4.2,3.5l7.5-7.5l-3.5-4.2c1.9-2.9,3.3-6.2,4.1-9.8l5.5-0.5V250
			l-5.5-0.5c-0.7-3.6-2.1-6.9-4.1-9.8l3.5-4.2l-7.5-7.5l-4.2,3.5c-2.9-1.9-6.2-3.3-9.8-4.1l-0.5-5.5h-10.6l-0.5,5.5
			c-3.6,0.7-6.9,2.1-9.8,4.1l-4.2-3.5l-7.5,7.5l3.5,4.2c-1.9,2.9-3.3,6.2-4.1,9.8l-5.5,0.5v10.6l5.5,0.5c0.7,3.6,2.1,6.9,4.1,9.8
			l-3.5,4.2l7.5,7.5l4.2-3.5c2.9,1.9,6.2,3.3,9.8,4.1l0.5,5.5h10.6L1357.4,283.2z M1337.3,255.3c0-7.9,6.4-14.3,14.3-14.3
			c7.9,0,14.3,6.4,14.3,14.3c0,7.9-6.4,14.3-14.3,14.3C1343.7,269.6,1337.3,263.2,1337.3,255.3z"/>
		<path class="st24" d="M1333.8,225.8l3.6,2.9l6.3-6.3l-2.9-3.6c1.6-2.5,2.8-5.2,3.4-8.2l4.6-0.4v-8.9l-4.6-0.4
			c-0.6-3-1.8-5.8-3.4-8.2l2.9-3.6l-6.3-6.3l-3.6,2.9c-2.5-1.6-5.2-2.8-8.2-3.4l-0.4-4.6l-8.9,0l-0.4,4.6c-3,0.6-5.8,1.8-8.2,3.4
			l-3.6-2.9l-6.3,6.3l2.9,3.6c-1.6,2.5-2.8,5.2-3.4,8.2l-4.6,0.4v8.9l4.6,0.4c0.6,3,1.8,5.8,3.4,8.2l-2.9,3.6l6.3,6.3l3.6-2.9
			c2.5,1.6,5.2,2.8,8.2,3.4l0.4,4.6h8.9l0.4-4.6C1328.5,228.6,1331.3,227.4,1333.8,225.8z M1308.6,205.8c0-6.7,5.4-12,12-12
			c6.7,0,12,5.4,12,12c0,6.7-5.4,12-12,12C1314,217.9,1308.6,212.5,1308.6,205.8z"/>
	</g>
	<g>
		<g>
			<rect x="1528.7" y="603.4" class="st24" width="126.4" height="82.2"/>
		</g>
		<rect x="1533.3" y="618.8" class="st20" width="117.1" height="62.7"/>
		<g>
			<rect x="1542.9" y="628.2" class="st24" width="86.6" height="2.7"/>
			<rect x="1542.9" y="636.5" class="st24" width="41.6" height="2.7"/>
			<rect x="1542.9" y="644.7" class="st24" width="52.4" height="2.7"/>
			<rect x="1542.9" y="653" class="st24" width="18.5" height="2.7"/>
			<rect x="1542.9" y="661.2" class="st24" width="12" height="2.7"/>
		</g>
	</g>
	<g>
		
			<rect x="918.2" y="603.2" transform="matrix(1 -4.558345e-03 4.558345e-03 1 -2.8659 4.397)" class="st17" width="89.9" height="55.5"/>
		<g>
			<g>
				<path class="st25" d="M952.6,644.9c-0.4,0-0.8-0.1-1.1-0.4l-16.4-12c-0.5-0.4-0.8-0.9-0.8-1.5c0-0.6,0.3-1.2,0.8-1.5l16.3-12.1
					c0.8-0.6,2-0.4,2.6,0.4c0.6,0.8,0.4,2-0.4,2.6L939.3,631l14.3,10.5c0.8,0.6,1,1.8,0.4,2.6C953.7,644.6,953.1,644.9,952.6,644.9z
					"/>
			</g>
			<g>
				<path class="st25" d="M973.9,644.8c-0.6,0-1.1-0.3-1.5-0.8c-0.6-0.8-0.4-2,0.4-2.6l14.3-10.6l-14.3-10.5c-0.8-0.6-1-1.8-0.4-2.6
					c0.6-0.8,1.8-1,2.6-0.4l16.4,12c0.5,0.4,0.8,0.9,0.8,1.5s-0.3,1.2-0.8,1.5L975,644.4C974.6,644.7,974.3,644.8,973.9,644.8z"/>
			</g>
			<g>
				<path class="st25" d="M958.9,644.9c-0.2,0-0.4,0-0.6-0.1c-1-0.3-1.5-1.4-1.2-2.4l8.5-24.2c0.3-1,1.4-1.5,2.4-1.2
					c1,0.3,1.5,1.4,1.2,2.4l-8.5,24.2C960.4,644.4,959.7,644.9,958.9,644.9z"/>
			</g>
		</g>
	</g>
	<ellipse id="_x3C_Path_x3E__359_" class="st24" cx="1298.6" cy="777" rx="364.9" ry="21.3"/>
	<g>
		<g>
			<polygon class="st26" points="1457.4,777 1471.3,777 1490.1,673 1476.3,673 			"/>
			<polygon class="st27" points="1457.4,777 1471.3,777 1490.1,673 1476.3,673 			"/>
			<polygon class="st27" points="1457.4,777 1467.5,777 1486.3,673 1476.3,673 			"/>
		</g>
		<path class="st26" d="M1418.5,703.9h55.3c1.7,0,3.1-1.4,3.1-3.1l0,0c0-1.7-1.4-3.1-3.1-3.1h-55.3c-1.7,0-3.1,1.4-3.1,3.1l0,0
			C1415.4,702.6,1416.8,703.9,1418.5,703.9z"/>
		<path class="st26" d="M1412.3,738.8h55.3c1.7,0,3.1-1.4,3.1-3.1l0,0c0-1.7-1.4-3.1-3.1-3.1h-55.3c-1.7,0-3.1,1.4-3.1,3.1l0,0
			C1409.3,737.4,1410.7,738.8,1412.3,738.8z"/>
		<g>
			<polygon class="st26" points="1401,777 1414.8,777 1433.6,673 1419.8,673 			"/>
			<polygon class="st27" points="1401,777 1414.8,777 1433.6,673 1419.8,673 			"/>
			<polygon class="st27" points="1401,777 1411,777 1429.9,673 1419.8,673 			"/>
		</g>
		<g>
			<polygon class="st26" points="1529.6,777 1515.8,777 1497,673 1510.8,673 			"/>
			<polygon class="st28" points="1529.6,777 1515.8,777 1497,673 1510.8,673 			"/>
			<polygon class="st27" points="1525.8,777 1515.8,777 1497,673 1507,673 			"/>
		</g>
		<path class="st26" d="M1505.3,703.9H1450c-1.7,0-3.1-1.4-3.1-3.1l0,0c0-1.7,1.4-3.1,3.1-3.1h55.3c1.7,0,3.1,1.4,3.1,3.1l0,0
			C1508.4,702.6,1507,703.9,1505.3,703.9z"/>
		<path class="st26" d="M1511.5,738.8h-55.3c-1.7,0-3.1-1.4-3.1-3.1l0,0c0-1.7,1.4-3.1,3.1-3.1h55.3c1.7,0,3.1,1.4,3.1,3.1l0,0
			C1514.5,737.4,1513.1,738.8,1511.5,738.8z"/>
		<path class="st27" d="M1505.3,703.9H1450c-1.7,0-3.1-1.4-3.1-3.1l0,0c0-1.7,1.4-3.1,3.1-3.1h55.3c1.7,0,3.1,1.4,3.1,3.1l0,0
			C1508.4,702.6,1507,703.9,1505.3,703.9z"/>
		<path class="st27" d="M1511.5,738.8h-55.3c-1.7,0-3.1-1.4-3.1-3.1l0,0c0-1.7,1.4-3.1,3.1-3.1h55.3c1.7,0,3.1,1.4,3.1,3.1l0,0
			C1514.5,737.4,1513.1,738.8,1511.5,738.8z"/>
		<g>
			<polygon class="st26" points="1473.1,777 1459.3,777 1440.5,673 1454.3,673 			"/>
			<polygon class="st28" points="1473.1,777 1459.3,777 1440.5,673 1454.3,673 			"/>
			<polygon class="st27" points="1469.4,777 1459.3,777 1440.5,673 1450.6,673 			"/>
		</g>
		<g>
			<path class="st26" d="M1516.2,678h-99.9c-1.2,0-2.2-1-2.2-2.2v-5.5c0-1.2,1-2.2,2.2-2.2h99.9c1.2,0,2.2,1,2.2,2.2v5.5
				C1518.4,677,1517.4,678,1516.2,678z"/>
			<path class="st27" d="M1454.2,678h-38c-1.2,0-2.2-1-2.2-2.2v-5.5c0-1.2,1-2.2,2.2-2.2h38c1.2,0,2.2,1,2.2,2.2v5.5
				C1456.5,677,1455.5,678,1454.2,678z"/>
		</g>
	</g>
	<g>
		<g>
			<rect x="1067.5" y="693.4" class="st13" width="126.4" height="82.2"/>
			<rect x="1067.5" y="693.4" class="st29" width="126.4" height="82.2"/>
		</g>
		<rect x="1072.1" y="708.8" class="st13" width="117.1" height="62.7"/>
		<g>
			<rect x="1081.7" y="718.2" class="st16" width="86.6" height="2.7"/>
			<rect x="1081.7" y="726.5" class="st16" width="41.6" height="2.7"/>
			<rect x="1081.7" y="734.7" class="st16" width="52.4" height="2.7"/>
			<rect x="1081.7" y="743" class="st16" width="18.5" height="2.7"/>
			<rect x="1081.7" y="751.2" class="st16" width="12" height="2.7"/>
		</g>
	</g>
	<g>
		<polygon class="st13" points="1350.1,777 1247.2,777 1264.6,640.2 1332.6,640.2 		"/>
		<polygon class="st30" points="1350.1,777 1247.2,777 1259.1,683.4 1264.6,640.2 1332.6,640.2 1340.8,703.9 		"/>
		<polygon class="st31" points="1340.8,703.9 1259.1,683.4 1264.6,640.2 1332.6,640.2 		"/>
	</g>
	<g>
		<path class="st13" d="M1385,766.7h-172.8c-1.1,0-2,0.9-2,2v6.2c0,1.1,0.9,2,2,2H1385c1.1,0,2-0.9,2-2v-6.2
			C1387,767.6,1386.1,766.7,1385,766.7z"/>
		<path class="st14" d="M1385,766.7h-172.8c-1.1,0-2,0.9-2,2v6.2c0,1.1,0.9,2,2,2H1385c1.1,0,2-0.9,2-2v-6.2
			C1387,767.6,1386.1,766.7,1385,766.7z"/>
	</g>
	<g>
		<g>
			<polygon class="st13" points="1462.7,332.1 1470.7,353.5 1484,340.1 			"/>
			
				<rect x="1475.3" y="342.1" transform="matrix(0.7071 -0.7071 0.7071 0.7071 187.4843 1146.2299)" class="st13" width="4.2" height="9.4"/>
		</g>
		<polygon class="st28" points="1484,340.1 1462.7,332.1 1470.7,353.5 1475.9,348.3 1479.2,351.6 1482.2,348.6 1478.9,345.3 		"/>
	</g>
	<g>
		<path class="st26" d="M1135.7,408.4l20.1,7.5l-10.5-10.5c-0.8,0.4-1.8,0.4-2.5-0.3c-0.8-0.8-0.8-2.1,0-2.9c0.8-0.8,2.1-0.8,2.9,0
			c0.7,0.7,0.8,1.7,0.3,2.5l10.5,10.5l-7.5-20.1l-6.7,1.5l-0.3-2.4l-1.3-1.3l-7.4,7.4l1.3,1.3l2.4,0.3L1135.7,408.4z"/>
		<path class="st27" d="M1135.7,408.4l20.1,7.5l-10.5-10.5c-0.8,0.4-1.8,0.4-2.5-0.3c-0.8-0.8-0.8-2.1,0-2.9c0.8-0.8,2.1-0.8,2.9,0
			c0.7,0.7,0.8,1.7,0.3,2.5l10.5,10.5l-7.5-20.1l-6.7,1.5l-0.3-2.4l-1.3-1.3l-7.4,7.4l1.3,1.3l2.4,0.3L1135.7,408.4z"/>
	</g>
	<g>
		<path class="st26" d="M1659.8,385c6.7,7.7,40.7,73.2,34.1,88.5c-6.6,15.3-61-2.3-61-2.3l3.3-21.6c0,0,21.2,0.7,23.2-1.3
			c2-2-28.6-32.6-28.6-32.6L1659.8,385z"/>
		<g class="st32">
			<path class="st16" d="M1693.9,473.4c-0.8,1.8-2.1,3.1-4,4c0,0,0,0-0.1,0c-0.3,0.2-0.7,0.3-1.1,0.5c0,0-0.1,0-0.2,0.1
				c-0.3,0.1-0.7,0.3-1,0.4c-1.4,0.5-3,0.8-4.7,1c-0.5,0.1-0.9,0.1-1.4,0.1c-0.7,0.1-1.4,0.1-2.1,0.1c-0.6,0-1.2,0-1.8,0
				c-18.3,0-44.8-8.6-44.8-8.6l3.3-21.6c0,0,21.2,0.8,23.2-1.3c0.5-0.5-1-2.7-3.4-5.7c0,0,0,0,0,0c-6-7.4-18-19.6-22.9-24.6
				c-1.4-1.4-2.2-2.3-2.2-2.3l29.1-30.7C1666.5,392.7,1700.5,458.1,1693.9,473.4z"/>
		</g>
	</g>
	<path class="st32" d="M1689.9,477.5C1689.9,477.5,1689.9,477.5,1689.9,477.5c-0.4,0.2-0.8,0.4-1.1,0.5c0,0-0.1,0-0.2,0.1
		c-0.3,0.1-0.7,0.3-1,0.4c-1.4,0.5-3,0.8-4.7,1c-0.5,0.1-0.9,0.1-1.4,0.1c-0.7,0.1-1.4,0.1-2.1,0.1c-0.6,0-1.2,0-1.8,0
		c-18.3,0-44.8-8.6-44.8-8.6l3.3-21.6c0,0,23.8,2,25.9,0c0,0,0-0.1,0.1-0.1c0.4-0.8-2.3-3.5-6.2-6.9c0,0,0,0,0,0
		c-6-7.4-18-19.6-22.9-24.6l13.8-14.7l10.5-1.1C1657.2,402.1,1680.3,439.5,1689.9,477.5z"/>
	<g>
		<path class="st26" d="M1591.1,382.8c-3.8,2.7-5.6,6.6-4.1,8.7l99.5,137.1c1.5,2,5.7,1.5,9.5-1.3c3.8-2.7,5.6-6.6,4.1-8.7
			l-99.5-137.1C1599.2,379.5,1594.9,380.1,1591.1,382.8z"/>
		<path class="st14" d="M1600.6,381.6l99.5,137.1c1.5,2-0.4,5.9-4.1,8.7c-3.8,2.7-8,3.3-9.5,1.2L1587,391.5
			c-0.8-1.1-0.6-2.8,0.4-4.6c0.5-0.8,1.1-1.7,1.9-2.5c0.5-0.6,1.2-1.1,1.9-1.6C1594.9,380.1,1599.2,379.5,1600.6,381.6z"/>
		<path class="st33" d="M1700.1,518.7c1.5,2-0.4,5.9-4.1,8.7c-3.8,2.7-8,3.3-9.5,1.2c-0.8-1.1,1.2-2.8,2.4-5.3l-101.5-136.4
			c0.5-0.8,1.1-1.7,1.9-2.5l99.5,137.1c0.6-0.6,1.2-1.1,1.9-1.6C1694.4,517.2,1698.6,516.6,1700.1,518.7z"/>
	</g>
	<g>
		<path class="st13" d="M1578.8,379c-3.2,3.4-4.3,7.6-2.4,9.3l123.7,115.8c1.8,1.7,5.9,0.4,9.1-3c3.2-3.4,4.3-7.6,2.4-9.3
			L1587.9,376C1586.1,374.3,1582,375.6,1578.8,379z"/>
		<path class="st14" d="M1587.9,376l123.7,115.8c1.8,1.7,0.8,5.9-2.4,9.3c-3.2,3.4-7.3,4.8-9.1,3l-123.7-115.8c-1-1-1.1-2.6-0.5-4.6
			c0.3-0.9,0.8-1.8,1.4-2.8c0.4-0.7,1-1.3,1.5-2C1582,375.6,1586.1,374.3,1587.9,376z"/>
		<path class="st33" d="M1711.6,491.8c1.8,1.7,0.8,5.9-2.4,9.3c-3.2,3.4-7.3,4.8-9.1,3c-1-1,0.7-3,1.4-5.7l-125.5-114.7
			c0.3-0.9,0.8-1.8,1.4-2.8l123.7,115.8c0.4-0.7,0.9-1.3,1.5-2C1705.7,491.4,1709.7,490,1711.6,491.8z"/>
	</g>
	<path class="st34" d="M1608.5,748.5l-9.4,0.2c-9.6-45-16.4-100.7-20.6-142.7c-0.7-6.6-1.3-12.8-1.8-18.6c-0.2-2.8-0.5-5.4-0.7-8
		c-1.1-12.6-1.9-22.6-2.4-28.8c-0.3-4.5-0.5-7-0.5-7h34.1l-0.3,8.7l-1.1,28.6l-0.1,3.3L1605,603l-1.2,32.2
		C1615.5,680.5,1608.5,748.5,1608.5,748.5z"/>
	<path class="st34" d="M1685,746.1l-9.3,1.8c-18.6-46.4-36-105.9-47.4-147.4c-1.8-6.4-3.4-12.5-4.8-17.9c-0.1-0.3-0.1-0.5-0.2-0.8
		c-2.9-10.8-5.1-19.5-6.4-25c-1.1-4.3-1.6-6.6-1.6-6.6l33.6-5.8l1.9,14.1l2.8,20.7l0.5,4.1l1.9,14.1l5.1,37.9
		C1680.3,677.9,1685,746.1,1685,746.1z"/>
	<path class="st32" d="M1653.5,579.1l-30,3.4c-0.1-0.3-0.1-0.5-0.2-0.8c-2.9-10.8-5.1-19.5-6.4-25l33.8,1.7L1653.5,579.1z"/>
	<path class="st32" d="M1606.9,552.2l-1.1,28.6l-0.1,3.3l-29,3.2c-0.2-2.8-0.5-5.4-0.7-8c-1.1-12.6-1.9-22.6-2.4-28.8L1606.9,552.2z
		"/>
	<path class="st35" d="M1580.7,779.8c1.8-1.4,3.8-2.5,5.9-3.2l0,0c0,0,6.4-6.4,9.5-25.5l8.4-2.2c2.9-0.7,6,0.5,7.6,3
		c0.2,0.3,0.4,0.7,0.5,1.1c0.4,2.1,0.7,4.1,0.9,6.2c0.8,6.5,0.1,21,0.1,21h-1.5l-0.6-13.2c-0.2-4.5-3.7,0.8-4.6,5.6
		c-1,4.8-3.1,10-12.9,10.2C1582.6,783,1577.8,782.6,1580.7,779.8z"/>
	<path class="st35" d="M1612.4,752c0.6-4.5,0.7-12.3,0.7-12.3l-18.7,2.1c0,0,2.3,8.9,0.4,15.5C1604.3,754.8,1612.4,752,1612.4,752z"
		/>
	<path class="st35" d="M1656.7,779.8c1.8-1.4,3.8-2.5,5.9-3.2l0,0c0,0,6.4-6.4,9.5-25.5l8.4-2.2c2.9-0.7,6,0.5,7.6,3
		c0.2,0.3,0.4,0.7,0.5,1.1c0.4,2.1,0.7,4.1,0.9,6.2c0.8,6.5,0.1,21,0.1,21h-1.5l-0.6-13.2c-0.2-4.5-3.7,0.8-4.6,5.6
		c-1,4.8-3.1,10-12.9,10.2C1658.5,783,1653.8,782.6,1656.7,779.8z"/>
	<path class="st35" d="M1688.4,752c0.6-4.5,0.7-12.3,0.7-12.3l-18.7,2.1c0,0,2.3,8.9,0.4,15.5C1680.3,754.8,1688.4,752,1688.4,752z"
		/>
	<path class="st13" d="M1656.7,569.9l-35.5,4.5l-1.4,0.2l-7.3-26.8l-1.9,28.7l-38.1-2c-17-99.5,12-123,12-123l51.6,10.4
		c23.4,39.7,17.8,85.9,17.8,85.9L1656.7,569.9z"/>
	<ellipse class="st36" cx="1604" cy="327.5" rx="3.9" ry="7.1"/>
	<path class="st34" d="M1633.3,351.2c-0.1,0.1-0.3,0.2-0.4,0.3c-2.1,1.5-4.5,2.9-7.2,3.5c-7.6,1.8-12.8,0.7-16.2-2.7c0,0,0,0,0,0
		c-4.8-5.2-6-14.3-5.3-25.4c0.3-5.1,1-9.5,2.4-12.9c0,0,0-0.2,0-0.2c0.1-0.1,0.1-0.3,0.2-0.5c2.1-4.8,5.6-7.9,11.1-9.2
		c1.9-0.4,4.1-0.7,6.5-0.7C1646,303.2,1649.9,338.9,1633.3,351.2z"/>
	<path class="st32" d="M1632.9,351.6c-2.1,1.5-4.5,2.6-7.2,3.2c-7.6,1.8-12.8,0.5-16.2-3c3.7,0.8,8.8,1.1,13.7-1.1
		C1626.2,349.2,1629.6,349.9,1632.9,351.6z"/>
	<path class="st34" d="M1635.1,371c1.3,6.1-6.6,8.6-6.6,8.6c-13-5.6-15.4-12.5-15.4-12.5c10.9-5.7,7.7-21.7,7.7-21.7l2.2,1.1l15.5,3
		c0,0-4.3,8.3-4.9,10.1c0,0,0,0,0,0.1C1630.6,369.7,1635.1,371,1635.1,371z"/>
	<path class="st26" d="M1606.5,313.9c0,0-1.2,15.1,13.1,21.6c0,0,6.2,15.7,15.2,15.9c12.4,0.3,23.2-17.3,19-35.2
		C1648.3,293,1613.1,291.2,1606.5,313.9z"/>
	<path class="st34" d="M1612.4,331.2c0-2.4,1.9-6.3,5.6-5.8c3.8,0.6,5.9,9.9-3.4,12C1613.2,337.7,1612.4,336.1,1612.4,331.2z"/>
	<path class="st26" d="M1632.9,297.8c0,0-14.4-3.6-22.4,2.2c-9.3,6.8-12.8,13.8-1.8,24.7c0,0,24.2-7.9,32.3-6.2
		c8.1,1.7,13.8,4,13.8,4C1656.4,306.4,1640.9,294.5,1632.9,297.8z"/>
	<path class="st26" d="M1612.4,327.5c0,0,3.9,17.4-2.1,32.3c0,0-12.2,15.6-7.4,16.9c7.1,2,27.2,35.4,54.6,10.7
		c5.5-4.9-3.9-20.6-1-22.2c11.9-6.5,1-28.1,0.5-40.6c-0.5-12.5-5.9-31-24.1-26.8C1614.7,302,1612.4,327.5,1612.4,327.5z"/>
	<line class="st36" x1="1600.1" y1="326.4" x2="1614.6" y2="326.4"/>
	<path class="st32" d="M1621.2,574.4l-1.4,0.2l-7.3-26.8c0,0,15.7-26.7,10.8-40.7C1624,508.1,1640.9,533.2,1621.2,574.4z"/>
	<g>
		<path class="st26" d="M1591.9,369.7c0,0,17.2-6.1,43.2,1.4s26.9,18.6,26.9,18.6s-16.5,37.3-19,79.5l-67.7-2.5
			C1575.3,466.6,1567.2,407,1591.9,369.7z"/>
		<path class="st37" d="M1662,389.6c0,0-16.5,37.3-19,79.5l-67.6-2.5c0,0-1.1-8.3-1.2-20.6c-0.1-8.6,0.3-19.2,1.9-30.3
			c2.3-15.6,6.9-32.3,15.9-46c0,0,17.2-6.1,43.2,1.4C1661,378.5,1662,389.6,1662,389.6z"/>
	</g>
	<path class="st32" d="M1590.9,418.2c0,0-2.8,17.2-16.9,27.7c-0.1-8.6,0.3-19.2,1.9-30.3L1590.9,418.2z"/>
	<path class="st34" d="M1516.2,368.5l-8.5-12.7c0,0-1.3-5.5-3-6.7c-1.6-1.3-18-8.2-20-8.2c-2,0-2,12.8,0,14.9c2,2.2,12.3,6.8,15,7.3
		c2.7,0.5,1.4,0,1.4,0l7.5,15L1516.2,368.5z"/>
	<g>
		<path class="st26" d="M1591.9,369.7c0,0-23.7,9.3-52.7,27.2l-27.5-37.6c0,0-7.4,2.3-10.2,15.2c0,0,14.1,53.9,32.5,59.2
			c18.4,5.3,57-15.6,57-15.6S1602.2,390.1,1591.9,369.7z"/>
		<path class="st37" d="M1591.9,369.7c0,0-23.7,9.3-52.7,27.2l-27.5-37.6c0,0-7.4,2.3-10.2,15.2c0,0,14.1,53.9,32.5,59.2
			c18.4,5.3,57-15.6,57-15.6S1602.2,390.1,1591.9,369.7z"/>
	</g>
	<g>
		<path class="st26" d="M1609.3,367.3c0,0,6,43,25,44.7c19,1.7,27.6-30,24.3-33.9C1655.4,374.3,1630.9,367,1609.3,367.3z"/>
		<path class="st38" d="M1609.3,367.3c0,0,6,43,25,44.7c19,1.7,27.6-30,24.3-33.9C1655.4,374.3,1630.9,367,1609.3,367.3z"/>
	</g>
	<polygon class="st39" points="932.3,762.7 946.2,762.7 947.4,730.4 933.4,730.4 	"/>
	<path class="st26" d="M948.1,761.1h-16.9c-0.6,0-1.1,0.4-1.2,1l-2.7,12.4c-0.2,1.1,0.5,2.2,1.6,2.4c0.1,0,0.3,0,0.5,0
		c5.5-0.1,9.5-0.4,16.3-0.4c4.2,0,17,0.4,22.9,0.4c5.9,0,6.6-5.8,4.2-6.3c-10.7-2.3-18.8-5.6-22.3-8.7
		C949.8,761.4,949,761.1,948.1,761.1z"/>
	<path class="st13" d="M949.1,763c-0.1,0-0.2-0.1-0.2-0.3c0-0.1,0-0.3,0.2-0.3c0.5-0.3,5-3.1,6.5-2.3c0.4,0.2,0.6,0.5,0.6,0.9
		c0.1,0.7-0.2,1.3-0.7,1.8c-0.8,0.5-1.7,0.8-2.7,0.7C951.5,763.5,950.3,763.4,949.1,763z M950.1,762.6c1.6,0.5,3.4,0.5,5-0.2
		c0.3-0.3,0.5-0.7,0.4-1.2c0-0.3-0.1-0.4-0.2-0.4c-0.1-0.1-0.3-0.1-0.4-0.1C953.1,761,951.5,761.7,950.1,762.6z"/>
	<path class="st13" d="M949,763.1c-0.1-0.1-0.2-0.2-0.2-0.3c0-0.2,0.4-4.2,2-5.5c0.4-0.3,0.9-0.5,1.4-0.4c0.5,0,1,0.4,1.1,0.9
		c0.3,1.5-2.5,4.5-3.9,5.3h-0.2C949.1,763.1,949.1,763.1,949,763.1z M951.2,757.7c-1,1.3-1.6,2.8-1.6,4.4c1.4-1.1,3.2-3.4,3-4.3
		c0-0.1-0.1-0.3-0.5-0.3H952C951.7,757.4,951.5,757.5,951.2,757.7z"/>
	<polygon class="st32" points="933.4,730.5 947.4,730.5 946.8,747.1 932.8,747.1 	"/>
	<polygon class="st39" points="1004,763.8 1018.4,765.3 1021.1,734.3 1006.7,732.8 	"/>
	<path class="st26" d="M1020,760.7H1003c-0.6,0-1.1,0.4-1.2,1l-2.7,12.4c-0.2,1.1,0.5,2.2,1.6,2.4c0.1,0,0.3,0,0.5,0
		c5.5-0.1,9.5-0.4,16.3-0.4c4.2,0,17,0.4,22.9,0.4s6.6-5.8,4.2-6.3c-10.7-2.3-18.8-5.6-22.3-8.7C1021.7,761,1020.8,760.7,1020,760.7
		z"/>
	<path class="st13" d="M1020.9,762.6c-0.1,0-0.2-0.1-0.2-0.3c0-0.1,0-0.3,0.2-0.3c0.5-0.3,5-3.1,6.5-2.3c0.4,0.2,0.6,0.5,0.6,0.9
		c0.1,0.7-0.2,1.3-0.7,1.8c-0.8,0.5-1.7,0.8-2.7,0.7C1023.3,763.1,1022.1,762.9,1020.9,762.6z M1021.9,762.1c1.6,0.5,3.4,0.5,5-0.2
		c0.3-0.3,0.5-0.7,0.4-1.2c0-0.3-0.1-0.4-0.2-0.4c-0.1-0.1-0.3-0.1-0.4-0.1C1024.9,760.6,1023.3,761.2,1021.9,762.1z"/>
	<path class="st13" d="M1020.8,762.7c-0.1-0.1-0.2-0.2-0.2-0.3c0-0.2,0.4-4.2,2-5.5c0.4-0.3,0.9-0.5,1.4-0.4c0.5,0,1,0.4,1.1,0.9
		c0.3,1.5-2.5,4.5-3.9,5.3h-0.2C1020.9,762.7,1020.9,762.7,1020.8,762.7z M1023.1,757.3c-1,1.3-1.6,2.8-1.6,4.4
		c1.4-1.1,3.2-3.4,3-4.3c0-0.1-0.1-0.3-0.5-0.3h-0.2C1023.5,757,1023.3,757.1,1023.1,757.3z"/>
	<polygon class="st32" points="1006.7,732.8 1021.1,734.3 1019.7,750.3 1005.3,748.8 	"/>
	<path class="st26" d="M939.2,447.2h74c7,38.4,29.1,174.3,13.3,295.4l-25-3.1c0,0,2.3-160.8-19.8-220.2c-2.5,31.8-5.6,65.7-8.2,83.7
		c-6.4,44.3-20.2,141.2-20.2,141.2h-25.5c0,0,5.2-92.7,7.6-136.3C937.9,560.6,939.1,457,939.2,447.2z"/>
	<g>
		<polygon class="st13" points="1029.3,748.5 998.3,743.9 999.2,735.3 1031.5,739.6 		"/>
	</g>
	<g>
		<polygon class="st13" points="956.2,744.4 926.2,744.4 926.2,735.4 957.4,734.9 		"/>
	</g>
	<path class="st32" d="M981.6,519.4c3.3,8.8,6,19.7,8.3,32c2.1-28.3-6.2-58.3-6.2-58.3L981.6,519.4z"/>
	<path class="st13" d="M937.1,460.1l-1.7,8.9c0,0,51.8,6.7,84,6.5l-1.1-6.1L937.1,460.1z"/>
	<path class="st39" d="M1042.1,382.7c0,0,17.9,56.4,30.2,60.1c12.2,3.7,43.4-42.9,43.4-42.9s27.9-0.3,29.2-2.2
		c1.2-1.9-7.3-21.6-9.3-21.6c-2,0-26.3,9.1-27.3,10.7c-0.9,1.5-28.8,28.2-30.2,27.4c-1.4-0.8-11.9-34.3-11.9-34.3L1042.1,382.7z"/>
	<path class="st39" d="M1119.2,397c0.2-0.1,0.5-0.1,0.7-0.2c-0.1-0.1-0.2-0.1-0.3-0.2C1119.5,396.8,1119.4,396.9,1119.2,397z"/>
	<g>
		<path class="st13" d="M1032,376.2l2.2,4l10.2,18.8l2.1,3.9l28.6-9.9c0,0-11.9-44.4-16-48.9L1032,376.2z"/>
		<path class="st40" d="M1032,376.2l2.2,4l10.2,18.8l2.1,3.9l28.6-9.9c0,0-11.9-44.4-16-48.9L1032,376.2z"/>
	</g>
	<path class="st32" d="M1034.2,380.2l10.2,18.8c6.3-12.4,4.5-29.3,4.5-29.3L1034.2,380.2z"/>
	<g>
		<path class="st13" d="M1059.1,344.1c0,0-15-19.6-43.1-20.9c-28-1.3-36.8,1.5-47.1,10.6c-15,13.4-33.5,128.5-33.5,128.5
			s39.1,12.1,84,9.1c0,0,0.3-31.9,10.4-53.5C1049.5,376,1059.1,344.1,1059.1,344.1z"/>
		<path class="st40" d="M935.4,462.2c0,0,39.1,12.1,84,9.1c0,0,0-3.9,0.5-10c0.2-2.9,0.6-6.2,1-9.8c0.5-3.7,1.1-7.8,2-11.8
			c0.4-2.2,1-4.4,1.5-6.6c1.4-5.3,3.1-10.5,5.3-15.2c1.2-2.6,2.4-5.3,3.6-7.8c2-4.5,3.9-8.8,5.7-13c3.7-8.7,7-16.8,9.6-23.8
			c1.9-5,3.6-9.5,5-13.4c1.5-4.3,2.7-7.8,3.6-10.5c1.2-3.5,1.7-5.4,1.7-5.4s-1-1.3-3-3.3c-5.6-5.6-18.9-16.3-39.1-17.5
			c-0.3,0-0.6-0.1-0.9-0.1c-21.4-1-31.5,0.4-39.7,5.1c-2.6,1.5-4.9,3.3-7.4,5.5c-1.7,1.5-3.4,4.3-5.1,8c-2.9,6.2-5.8,14.9-8.5,25
			c-0.4,1.5-0.8,3-1.2,4.6c-1.8,7-3.6,14.4-5.3,22c-0.5,2.1-1,4.3-1.4,6.4c-0.7,3.3-1.4,6.5-2.1,9.7c-1.7,8.1-3.2,16-4.6,23.1
			c-1.9,10.2-3.4,18.7-4.3,24C935.7,460.1,935.4,462.2,935.4,462.2z M1017.6,324.3c2,0.1,3.9,0.2,5.6,0.4c7.6,1,19.1,7,18.8,9.9
			c-0.3,2.9-4.7,10.2-15.9,8.4c-3.9-0.6-7.6-2.4-10.9-4.6c-6.2-4.1-10.7-9.7-11.2-11.5C1003.5,324.9,1010.8,324.1,1017.6,324.3z"/>
		<path class="st13" d="M993.5,362.6c0,0-14.9,35.9-17.9,65.7l40.1,5.1c0,0,18-48.5,21.7-63.7
			C1037.4,369.7,1005.4,366.5,993.5,362.6z"/>
		<polygon class="st40" points="1029.6,371.1 1035.2,371.7 1031.1,374.9 		"/>
	</g>
	<path class="st39" d="M1007.8,327.1c3,8.7,14.3,12.6,20.2,13.1c8.3,0.7,10.7-5.8,10.7-5.8s-6.7-3.4-6.1-7.2
		c0.4-2.2,1.4-4.4,2.8-6.4c0.7-1.1,1.5-2.2,2.3-3.2l-10.8-23.2C1024.5,304.5,1017.1,323.8,1007.8,327.1z"/>
	<path class="st32" d="M1026.5,305.2c-5.2,11.2,2.1,19.1,6.2,22c0.4-2.2,1.4-4.4,2.8-6.4L1026.5,305.2z"/>
	<g>
		<g>
			<path class="st39" d="M1062.8,275c0,0,3.5,19.1-6.5,26.8c-10,7.7-11-28.1-11-28.1L1062.8,275z"/>
			<path class="st41" d="M1062.8,275c0,0,3.5,19.1-6.5,26.8c-10,7.7-11-28.1-11-28.1L1062.8,275z"/>
		</g>
		<path class="st39" d="M1027.1,317.9c5.1,7,13.3,8.6,20.2,6.2c4.5-1.5,8.4-4.8,10.8-9.3c0.3-0.6,0.6-1.2,0.9-1.9
			c4.7-11.9,5.7-40.9-6.9-39.8c-10.4,0.9-20.6-2.3-25.8,6.7c-1.5,2.5-2.4,5.4-2.6,8.4C1022.5,301.9,1021.1,310,1027.1,317.9z"/>
		<path class="st26" d="M1043.8,294.9c-0.2,1.1,0.3,2.1,1,2.2c0.7,0.1,1.4-0.7,1.6-1.8c0.2-1.1-0.3-2.1-1-2.2
			C1044.7,293,1044,293.8,1043.8,294.9z"/>
		<path class="st26" d="M1056.4,296.7c-0.2,1.1,0.3,2.1,1,2.2c0.7,0.1,1.4-0.7,1.6-1.8c0.2-1.1-0.3-2.1-1-2.2
			C1057.3,294.8,1056.5,295.7,1056.4,296.7z"/>
		<path class="st42" d="M1052.3,296.7c0.8,3.6,2.2,7,4,10.3c-1.7,0.9-3.7,1-5.5,0.2L1052.3,296.7z"/>
		<path class="st26" d="M1040.5,290.3c0.2,0.1,0.5,0,0.7-0.2c1.2-1.2,2.8-1.8,4.5-1.6c0.4,0.1,0.7-0.1,0.8-0.5
			c0.1-0.4-0.1-0.7-0.5-0.8c0,0,0,0,0,0c-2.1-0.3-4.2,0.4-5.7,1.9c-0.3,0.2-0.3,0.7,0,0.9c0,0,0,0,0,0
			C1040.3,290.2,1040.4,290.3,1040.5,290.3z"/>
		<path class="st26" d="M1062.4,293.2c0.1,0.1,0.2,0.1,0.4,0.1c0.3-0.1,0.5-0.5,0.4-0.8c0,0,0,0,0,0c-0.6-2-2.2-3.7-4.2-4.3
			c-0.3-0.1-0.7,0.1-0.8,0.5l0,0c-0.1,0.3,0.1,0.7,0.5,0.8l0,0c1.6,0.6,2.8,1.9,3.3,3.5C1062,293,1062.2,293.1,1062.4,293.2z"/>
		<path class="st36" d="M1042,307.7c0,0,2.3,5,7,4.8"/>
		<g>
			<path class="st39" d="M1036,272.6l0.2,6.1c-2.1,0.9-3.5,3-2.8,5.5c1.5,5.3-2.2,12.9-6.4,15.7c0,0,0.1-2.2-1.8-1.9
				c-1.9,0.3-2.5,11.9,0.6,17.7c0,0-6.7-6.1-8.6-18.5c-1.8-11.4-1.5-18.7,0.1-24.1L1036,272.6z"/>
			<path class="st41" d="M1036,272.6l0.2,6.1c-2.1,0.9-3.5,3-2.8,5.5c1.5,5.3-2.2,12.9-6.4,15.7c0,0,0.1-2.2-1.8-1.9
				c-1.9,0.3-2.5,11.9,0.6,17.7c0,0-6.7-6.1-8.6-18.5c-1.8-11.4-1.5-18.7,0.1-24.1L1036,272.6z"/>
		</g>
		<path class="st26" d="M1016.1,279.9c0,0,7.8,1.2,20.1-1.2c19-3.8,27,3.2,27,3.2s4.5-3.9,3.9-9.3c-0.6-5.5-8.1-6.4-8.1-6.4
			s-2.3-6.1-7.3-8c-5-1.9-10.1,2.8-10.1,2.8s-6.3-6-13.6-4.3c-9,2.1-8.8,10.7-8.8,10.7s-8.6,0.9-8.4,5.3S1016.1,279.9,1016.1,279.9z
			"/>
		<ellipse class="st36" cx="1045.3" cy="295.9" rx="6.1" ry="7.1"/>
		<ellipse class="st36" cx="1060.7" cy="296.9" rx="6.1" ry="7.1"/>
		<path class="st36" d="M1051.4,296.7c0,0,2-1.2,3.2,0.2"/>
		<path class="st36" d="M1039.1,295.9l-10.8-1.4c-1.4-0.2-2.8,0.2-4,1.1l-0.5,0.4"/>
		<path class="st39" d="M1016,298.5c1.1,3.3,3.4,6.1,6.5,7.6c4.1,2.1,7.1-1.4,6.7-5.8c-0.4-3.9-3-9.7-7.5-9.9
			C1017.2,290.3,1014.8,294.5,1016,298.5z"/>
	</g>
	<path class="st32" d="M947.3,399.7c17.8-7.4,31.8-37.9,31.8-37.9l-10.1-6.1l-13.7,11c-0.4,1.5-0.8,3-1.2,4.6
		c-1.8,7-3.6,14.4-5.3,22C948.2,395.4,947.7,397.6,947.3,399.7z"/>
	<polygon class="st13" points="1045.1,402.9 1075.8,391.7 1076.6,394.3 1046,405.2 	"/>
	<g>
		
			<rect x="872" y="473" transform="matrix(0.9877 0.1567 -0.1567 0.9877 89.768 -137.4612)" class="st13" width="89.9" height="55.5"/>
		<polyline class="st43" points="914.3,504.4 929.7,512.3 935.4,499.1 931,511.7 914.3,505.5 911.2,519.1 		"/>
		<polyline class="st43" points="904.7,500.7 929.9,498.4 919.5,481.4 		"/>
		<line class="st43" x1="879.2" y1="513.6" x2="913.7" y2="483"/>
	</g>
	<path class="st39" d="M958.3,338.7c0,0-33.5,33.6-38,40.1S907,457.8,907,457.8s-1.8,0.6-2,2.2c-0.2,1.6-0.3,21.9,0,22.8
		c0.3,0.9,15.7,10.4,18,8.2c2.3-2.3,5.4-25.3,5.4-25.3l-8.1-7.9c0,0,9.5-53.3,15.4-62c5.9-8.6,30.3-27.1,30.3-27.1L958.3,338.7z"/>
	<g>
		<path class="st13" d="M984.1,325.2c4.9,10.3,1.2,32.1-7.8,39.8c-13.6,11.6-30.1,21.6-30.1,21.6L929.7,365c0,0,17.5-17.1,28-26.9
			C970.6,326.2,984.1,325.2,984.1,325.2z"/>
		<path class="st40" d="M984.1,325.2c4.9,10.3,1.2,32.1-7.8,39.8c-13.6,11.6-30.1,21.6-30.1,21.6L929.7,365c0,0,17.5-17.1,28-26.9
			C970.6,326.2,984.1,325.2,984.1,325.2z"/>
	</g>
	<polygon class="st13" points="929.7,363.6 927.7,366.4 944.8,388.8 947.3,387.1 	"/>
</g>
<g id="Layer_8">
	<g>
		<rect x="1060" y="315.2" class="st32" width="477.3" height="47.2"/>
		<linearGradient id="SVGID_4_" gradientUnits="userSpaceOnUse" x1="637.2485" y1="387.4421" x2="686.2263" y2="387.4421">
			<stop  offset="0" style="stop-color:#3C7BED"/>
			<stop  offset="1" style="stop-color:#2567DF"/>
		</linearGradient>
		<path class="st44" d="M682.7,403.3l-41.8-12.9c-2,0-3.6-1.6-3.6-3.6v-11.7c0-2,1.6-3.6,3.6-3.6l41.8,12.9c2,0,3.6,1.6,3.6,3.6
			v11.7C686.2,401.7,684.6,403.3,682.7,403.3z"/>
		<g>
			<path class="st45" d="M1386.3,399.8h-32c-5.2,0-9.4-4.2-9.4-9.4v0c0-5.2,4.2-9.4,9.4-9.4h32c5.2,0,9.4,4.2,9.4,9.4v0
				C1395.7,395.6,1391.5,399.8,1386.3,399.8z"/>
			<path class="st45" d="M1311,399.8h-32c-5.2,0-9.4-4.2-9.4-9.4v0c0-5.2,4.2-9.4,9.4-9.4h32c5.2,0,9.4,4.2,9.4,9.4v0
				C1320.4,395.6,1316.2,399.8,1311,399.8z"/>
			<path class="st45" d="M1369.1,612.1h-48.5c-7.7,0-14-6.3-14-14l0,0c0-7.7,6.3-14,14-14h48.5c7.7,0,14,6.3,14,14l0,0
				C1383.1,605.9,1376.8,612.1,1369.1,612.1z"/>
			<path class="st45" d="M1411.7,492.7H1262c-1.7,0-3.1-1.4-3.1-3.1l0,0c0-1.7,1.4-3.1,3.1-3.1h149.7c1.7,0,3.1,1.4,3.1,3.1l0,0
				C1414.7,491.3,1413.4,492.7,1411.7,492.7z"/>
			<path class="st45" d="M1411.7,515.1H1262c-1.7,0-3.1-1.4-3.1-3.1l0,0c0-1.7,1.4-3.1,3.1-3.1h149.7c1.7,0,3.1,1.4,3.1,3.1l0,0
				C1414.7,513.7,1413.4,515.1,1411.7,515.1z"/>
			<path class="st45" d="M1411.7,537.4h-93.2c-1.7,0-3.1-1.4-3.1-3.1l0,0c0-1.7,1.4-3.1,3.1-3.1h93.2c1.7,0,3.1,1.4,3.1,3.1l0,0
				C1414.7,536,1413.4,537.4,1411.7,537.4z"/>
		</g>
		<g>
			<g>
				<linearGradient id="SVGID_5_" gradientUnits="userSpaceOnUse" x1="573.8725" y1="238.2933" x2="599.8131" y2="238.2933">
					<stop  offset="0" style="stop-color:#3C7BED"/>
					<stop  offset="1" style="stop-color:#2567DF"/>
				</linearGradient>
				<path class="st46" d="M599.8,240.4v-4.1l-2.1-0.2c-0.3-1.4-0.8-2.7-1.6-3.8l1.4-1.6l-2.9-2.9l-1.6,1.4c-1.1-0.7-2.4-1.3-3.8-1.6
					l-0.2-2.1h-4.1l-0.2,2.1c-1.4,0.3-2.7,0.8-3.8,1.6l-1.6-1.4l-2.9,2.9l1.4,1.6c-0.7,1.1-1.3,2.4-1.6,3.8l-2.1,0.2v4.1l2.1,0.2
					c0.3,1.4,0.8,2.7,1.6,3.8l-1.4,1.6l2.9,2.9l1.6-1.4c1.1,0.7,2.4,1.3,3.8,1.6l0.2,2.1h4.1l0.2-2.1c1.4-0.3,2.7-0.8,3.8-1.6
					l1.6,1.4l2.9-2.9l-1.4-1.6c0.7-1.1,1.3-2.4,1.6-3.8L599.8,240.4z M586.8,243.9c-3.1,0-5.6-2.5-5.6-5.6c0-3.1,2.5-5.6,5.6-5.6
					c3.1,0,5.6,2.5,5.6,5.6C592.4,241.4,589.9,243.9,586.8,243.9z"/>
				<linearGradient id="SVGID_6_" gradientUnits="userSpaceOnUse" x1="596.1903" y1="250.3728" x2="616.5176" y2="250.3728">
					<stop  offset="0" style="stop-color:#3C7BED"/>
					<stop  offset="1" style="stop-color:#2567DF"/>
				</linearGradient>
				<path class="st47" d="M616.5,252v-3.2l-1.7-0.2c-0.2-1.1-0.7-2.1-1.2-3l1.1-1.3l-2.3-2.3l-1.3,1.1c-0.9-0.6-1.9-1-3-1.2
					l-0.2-1.7h-3.2l-0.2,1.7c-1.1,0.2-2.1,0.7-3,1.2l-1.3-1.1l-2.3,2.3l1.1,1.3c-0.6,0.9-1,1.9-1.2,3l-1.7,0.2v3.2l1.7,0.2
					c0.2,1.1,0.7,2.1,1.2,3l-1.1,1.3l2.3,2.3l1.3-1.1c0.9,0.6,1.9,1,3,1.2l0.2,1.7h3.2l0.2-1.7c1.1-0.2,2.1-0.7,3-1.2l1.3,1.1
					l2.3-2.3l-1.1-1.3c0.6-0.9,1-1.9,1.2-3L616.5,252z M606.4,254.7c-2.4,0-4.4-2-4.4-4.4c0-2.4,2-4.4,4.4-4.4c2.4,0,4.4,2,4.4,4.4
					C610.7,252.8,608.8,254.7,606.4,254.7z"/>
				<linearGradient id="SVGID_7_" gradientUnits="userSpaceOnUse" x1="582.7394" y1="259.8004" x2="599.8131" y2="259.8004">
					<stop  offset="0" style="stop-color:#3C7BED"/>
					<stop  offset="1" style="stop-color:#2567DF"/>
				</linearGradient>
				<path class="st48" d="M599.8,261.2v-2.7l-1.4-0.1c-0.2-0.9-0.5-1.8-1-2.5l0.9-1.1l-1.9-1.9l-1.1,0.9c-0.8-0.5-1.6-0.9-2.5-1
					l-0.1-1.4h-2.7l-0.1,1.4c-0.9,0.2-1.8,0.5-2.5,1l-1.1-0.9l-1.9,1.9l0.9,1.1c-0.5,0.8-0.9,1.6-1,2.5l-1.4,0.1l0,2.7l1.4,0.1
					c0.2,0.9,0.5,1.8,1,2.5l-0.9,1.1l1.9,1.9l1.1-0.9c0.8,0.5,1.6,0.9,2.5,1l0.1,1.4h2.7l0.1-1.4c0.9-0.2,1.8-0.5,2.5-1l1.1,0.9
					l1.9-1.9l-0.9-1.1c0.5-0.8,0.9-1.6,1-2.5L599.8,261.2z M591.3,263.5c-2,0-3.7-1.6-3.7-3.7c0-2,1.6-3.7,3.7-3.7
					c2,0,3.7,1.6,3.7,3.7C594.9,261.8,593.3,263.5,591.3,263.5z"/>
			</g>
		</g>
	</g>
</g>
<g id="tob">
	<path class="st49" d="M184.1,862.3c-1.6-0.3-3.2-1.8-3-3.4c0.2-1.6,1.9-2.6,3.4-3.1c1.7-0.6,3.6-0.8,5.4-1.1
		c4.3-0.6,8.7-1.3,13-1.9c2.9-0.4,5.7-0.8,8.6-1.3c3.7-0.5,7.5-1.1,10.8-2.9c2.6-1.4,4.8-3.4,7.2-5c4.7-3.1,10.4-4.7,16-4.4
		c3.7,0.2,7.5,1.1,11,0.1c3-0.9,5.5-3.1,8.5-4.2c5-1.9,10.5-0.4,15.6,1c2.2,0.6,4.4,1.3,6.6,1.9c2.3,0.7,5,1.7,5.6,4
		c0.5,1.9-0.7,4-2.5,5.1c-1.7,1.1-3.8,1.3-5.8,1.6c3.1,4.6,3.5,10.9,1,15.9c-2.5,5-7.8,8.4-13.3,8.7c-3.5,4.4-9,6.8-14.4,8.6
		c-2.1,0.7-4.3,1.3-6.5,1c-2.2-0.3-4.4-1.6-5.1-3.7c-0.7-2.1,0.7-4.8,2.9-5c-10.2,2.4-21.7-3.9-25.3-13.7c-3,3.6-6.5,7-10.6,9.1
		c-4.2,2.2-9.2,3.1-13.7,1.6c-4.5-1.4-8.2-5.5-8.6-10.2C191,862,184.7,862.4,184.1,862.3z"/>
	<path class="st50" d="M236.6,797c5.2,2.2,11,2.6,16.6,2.7c5.9,0.1,12,0,17.6-2.1c5.6-2.1,10.6-6.4,12.1-12.1
		c-1.8,19.3-4.9,38.6-9.2,57.5c-1.2,5.1-2.5,10.4-5.7,14.5c-3,3.9-7.7,6.6-12.7,7.2c-5,0.6-10.1-1-13.9-4.3
		c-5.4-4.6-7.5-11.8-9.1-18.7c-2.2-9.2-3.8-18.4-4.9-27.8c-0.6-4.6-1-9.3-1.3-13.9c-0.2-2.4-1.1-13.1-0.2-14.5
		C229,789.4,231.7,794.9,236.6,797z"/>
	<path class="st51" d="M283,784.9c0,8.7-13,15.8-29,15.8s-29-7.1-29-15.8s13-17.4,29-17.4S283,776.2,283,784.9z"/>
	<path class="st52" d="M232.2,784.4c1-1.3,2.3-2.1,3.7-2.9c9.1-5.2,20.4-6.4,30.4-3.5c2.7,0.8,5.3,1.9,7.4,3.8s3.3,4.8,2.8,7.5
		c2.3-3.3,1.5-8.1-1.2-11.2c-2.6-3.1-6.5-4.7-10.5-5.6c-7.4-1.8-15.2-1.7-22.5,0.4c-3.6,1-7.2,2.6-9.6,5.5c-1.6,1.9-4.4,7.9-1.7,10
		C231.3,787,231.1,785.7,232.2,784.4z"/>
	<path class="st16" d="M233.5,791c1.3,1.3,2.8,2.2,4.5,2.9c5.6,2.6,11.9,3.7,18,3.1c6.1-0.6,12.1-2.9,17.1-6.5
		c1-0.7,1.9-1.5,2.4-2.6c0.7-1.7,0.1-3.7-1.1-5.1s-3.1-3-4.9-3.7c-6.5-2.7-13.4-3.4-20.3-2.5c-3.4,0.4-6.7,0.9-9.7,2.5
		c-1.5,0.8-3.3,1.9-4.6,3c-1.2,1-2.6,2.7-3.3,4.1C230.8,787.6,232.5,789.9,233.5,791z"/>
	<g>
		<path class="st53" d="M256.1,785.6c-0.6-5.3-0.6-10.5-0.3-15.8c0.3-5.3,1-10.5,2.1-15.7l1-3.8c0.4-1.3,0.8-2.5,1.2-3.8
			c0.4-1.3,0.9-2.5,1.4-3.8c0.5-1.3,1.1-2.4,1.6-3.6c1.1-2.4,2.3-4.7,3.7-7c1.3-2.3,2.7-4.6,4.7-6.7l2,2.1c-1.6,1.6-3,3.8-4.4,6
			c-1.3,2.2-2.5,4.5-3.7,6.8c-0.6,1.1-1.2,2.3-1.6,3.5c-0.5,1.2-1,2.4-1.4,3.6c-0.4,1.2-0.8,2.4-1.2,3.7l-1,3.7
			c-1.2,5-2,10.1-2.4,15.3c-0.4,5.1-0.5,10.4,0,15.5L256.1,785.6z"/>
	</g>
	<g>
		<path class="st53" d="M253.3,785c-0.2-3-0.7-6.1-1.2-9.1c-0.5-3-1.2-6-2-8.9c-0.8-2.9-1.7-5.8-2.8-8.7c-1.1-2.8-2.4-5.6-3.8-8.2
			l0,0l0-0.1c-0.8-1.6-1.6-3.1-2.6-4.6c-0.9-1.5-1.9-3-2.9-4.4c-1-1.4-2.1-2.8-3.3-4.1c-1.2-1.3-2.4-2.5-3.8-3.6l1.8-2.2
			c2.9,2.5,5.3,5.4,7.4,8.4c1,1.5,2,3.1,2.9,4.7c0.9,1.6,1.8,3.2,2.6,4.9l0-0.1c1.4,2.8,2.7,5.7,3.7,8.6c1,2.9,1.9,5.9,2.6,8.9
			c0.7,3,1.3,6.1,1.8,9.1c0.5,3.1,0.8,6.1,1,9.2L253.3,785z"/>
	</g>
	<g>
		<path class="st54" d="M256,706.5l-0.1,10.3l-0.1,10.3l-0.1,20.7l0,20.7c0,6.9,0,13.8,0.1,20.7l-1.6,0c-0.1-6.9-0.3-13.8-0.4-20.7
			l-0.5-20.7l-0.6-20.7l-0.3-10.3l-0.4-10.3L256,706.5z"/>
	</g>
	<path class="st54" d="M269,728.8c0,0,2.4-0.3-1.4-5.6c0,0-3.9-3.6,1.1-6.9c4.9-3.3,8.8-8.3,8.8-8.3s1-0.9,2.5,0s5.9,1.1,6.4,1.1
		s2-0.6,0-2s-5-2.4-3.4-3.4s7-4.6,9.4-15.5s8.3-20.5,9.8-21.8s4.8-3.5,4.8-3.5s-0.4,9.4,1.6,12.3s5.9,12.1,6.5,12.6s0.9,1.6-2.4,1.8
		s-6.6,2-6.6,2s-2.9,2.8,1,4.3s9-0.6,9.5,1s1.3,12.8-1,16.6s-6.4,10.1-12.6,14.3s-10.1,7.1-15.3,5.1s-5.9-3.1-8.9-4s-5.5-0.6-7,0.9
		s-2.4,0.8-2.4,0.8L269,728.8z"/>
	<path class="st54" d="M252.2,708.3c0,0,0.5-12.8-12.8-21.3s-28.3-14.8-28.3-14.8s-10-5.8-11.4-8s-3.8-6.8-0.8-8.6s11.5-8,12.3-10.4
		s1.5-7-4.3-6s-11.4,7-12.5,9.6s-1.3,3.5-1.3,3.5s-9.5-18.4-10.9-22s-4.8-15.6-3.1-20.3s1-3,1-3s13-0.6,16-2s11.5-3,6.1-7.3
		s-18.3-7.4-19.3-8.4s-1.9-5.4,0.1-11.9s5.3-21.5,7.3-24.6s8.3-21,10.5-22.4s6-7.1,6.8-9.8s1.6,2.3,1.6,2.3s7.5,19.5,13.5,24.3
		s12.4,11.6,14.1,14.1s2.1,3.8,2.1,3.8s-1.5,2.6-4.9,3.3s-5.1,4.1-3.6,5.1s4.4,1.3,6.1,0.5s3.8-3.5,4.4-4s3.3,1.5,5.6,5.8
		s11,18.4,11,18.4s5.5,10.9,5.3,11.8s-0.5,2.5-2.4,3.5s-5.6,2.4-5.6,2.4l-2.1,1.4c0,0-1,2.4,3.8,2.4s11-0.6,12.8,1.1
		s6.5,9.3,6.9,12.5s2.5,11.4-1.6,26.6s-7.1,24.8-7.1,24.8s-5.6,13.1-6.1,14.3s-4.6,10-5,11.6s-1.4,3-1.4,3L252.2,708.3z"/>
	<path class="st54" d="M233.3,733.5c0,0-1.8-3.8,0.5-3s8,5.3,8.4-0.6s-1.8-11.9-5.8-16s-6.5-6.6-9.3-6.9s-4.4,1-6.6,0s-6.9-5-9-6.1
		s-15.3-6.5-24.1-2.6c-8.9,3.9-13.4,7.6-13.4,7.6s0.3,4.5,4.1,6.4s2.8,3,7,2.9s7.5-0.8,10,1.8s4,4,3.8,7.9s-2.4,5-0.3,5.1
		s4.3,0.1,6.6-0.9s7.1-1.9,5.9,0.9s-5.9,7-5.9,7s-2.6,0.1,1.6,2.3s5.9,4.8,8.9,4.1s7.4,1.3,9.4-1.9s1.6-6.4,4.5-6.8
		S233.3,733.5,233.3,733.5z"/>
	<path class="st55" d="M300.6,677.9c-2.8,3-3.6,7.3-3.7,11.4c0,4.1,0.7,8.1,0.8,12.2c0,4.1-0.8,8.4-3.5,11.4c-1.6,1.9-3.8,3.1-6,4.3
		c-4.7,2.6-9.4,5.3-14,7.9"/>
	<path class="st55" d="M207.6,522.6c-2.1,16.6-1.1,33.6,2.8,49.9c4,16.5,8.2,33.5,17.7,47.5c11.5,16.9,21.2,35.7,22.7,56.1
		c0.2,3.2,0.8,6,1.1,9.2"/>
	<path class="st55" d="M225.5,727.8c-3-0.6-5.5-2.6-7.4-4.9c-2-2.3-3.5-5-5.4-7.3c-4.2-5.3-10.4-9-17-10.4
		c-6.6-1.4-13.7-0.4-19.7,2.7"/>
</g>
<g id="character">
	<path class="st56" d="M358.6,862c-1.4,17.5-2.7,35-4.1,52.5c-0.3,4.4-0.7,9,1,13.1c2.4,6.1,8.8,9.8,15.3,11
		c6.4,1.2,13,0.3,19.5-0.4c23.6-2.5,47.6-2.2,71.2,1c11.5,1.5,23.2,3.8,34.5,1.5c15.1-3,27.4-13.4,40.3-21.7
		c15.3-9.9,32.2-17.1,47.5-26.9c15.4-9.8,29.7-22.7,36.2-39.7c3.3-8.7,4-19.5-2.4-26.2c-4.6-4.8-11.6-6.2-18.2-7.3
		c-38.3-6.4-77-11-115.8-13.6c-21.8-1.5-44.3-2.2-64.7,5.4c-21.4,7.9-38.6,24.2-55,40c-3.4,3.2-6.9,6.7-8.1,11.2
		c-1.2,4.5,0.8,10.3,5.3,11.3"/>
	<path class="st57" d="M480.9,858.7c0,0,2.3-1.7,4.6,0c2.3,1.7,5.7,4.4,5.7,4.4s-1.1-9.3,3.4-11.6l1.1-5.7l-53.3,31.7
		c0,0,3.1,2.3,3.5,2.6C446.4,880.2,480.9,858.7,480.9,858.7z"/>
	<path class="st57" d="M477.7,914.4c0,0-4.6,4.2-2.9,8.8l7.4,5.7c0,0-1.5-8.9,2.3-10.8L477.7,914.4z"/>
	<path class="st57" d="M485.5,914.4c0,0,1.1,1.5,0.8,2.8c-0.4,1.3-3.8,5.3-2.9,7.1s5.1,4.2,6.8,1.5c1.7-2.7,2.1-5.1,2.1-5.1
		l-1.1-2.5c0,0-1.5-1.3-0.4-2.1c1.1-0.8,5.1-4.2,4-5.3l-2.1-0.9L485.5,914.4z"/>
	<path class="st57" d="M372.3,925.8c0,0-2.3,8.4,4.9,4c0,0,3.6-5.7,1.7-7C379,922.8,374.8,920.3,372.3,925.8z"/>
	<path class="st57" d="M363.9,918.4c0,0,2.5,3.8,8,3.2c0,0-4.2,8-2.3,10.5c1.9,2.5-7.2-1.9-7.4-4.2S361.8,921.1,363.9,918.4z"/>
	<path class="st57" d="M379.5,918.4c0,0-6.8-0.4-1.2-3.6s52.4-30.6,52.4-30.6s1.5,3.2-0.5,4.8C428.2,890.4,379.5,918.4,379.5,918.4z
		"/>
	<path class="st57" d="M379.5,857.7c0,0-5.1,1.4-3.4,5.1s5,0.8,6.1,0s1.3-1.6,1.3-1.6L379.5,857.7z"/>
	<path class="st57" d="M376.1,856.4c0,0-3.6,6.4-1.3,8.3c2.3,1.9-1.9,0-1.9,0L367,861c0,0-0.1-8.2,2.4-9.7L376.1,856.4z"/>
	<path class="st16" d="M369.7,848.4l49.7,29c0,0,0.4,2-2.5,3.1l-52.9,30.8c0,0,1,11.2,15.8,2.7c14.8-8.6,51-29.9,51-29.9
		s1.3-0.8,2.5,0.4s49.8,29.3,49.8,29.3s13.9,0.8,8.6-8.2l-48.3-27.2c0,0-0.4-1.5,1.3-2.3c1.7-0.8,51.2-30.4,51.2-30.4l0.8-6.3
		c0,0-6.8-1.3-8-0.8c-1.1,0.6-47.3,27.2-47.3,27.2l-19.5-0.6L383.4,844L369.7,848.4z"/>
	<path class="st51" d="M421.7,794.5c0,0,8.2,8.8,19.5,0V872c0,0-9.8,12.2-19.5,0V794.5z"/>
	<path class="st51" d="M426.2,768.2c0,0,4.9,6,9.9,0v23.4c0,0-5.2,8.4-9.9,0V768.2z"/>
	<path class="st58" d="M426.2,749.8l7.5,2.8h2.4v15.7c0,0-4.5,5.4-9.9,0V749.8z"/>
	<path class="st59" d="M487.2,715.1c0,0,17,3.2,17.6,4.5l-55,31.6c0,0-3.4,2.6-7.1,1.9v-13.7c0,0,7.5-2.4,10.1-4.1
		C455.5,733.6,487.2,715.1,487.2,715.1z"/>
	<path class="st60" d="M443,738.2c0,0-11,1.7-16.1-1.9c-5.2-3.7-77.1-45.1-77.1-45.1s-3-1.5-3-3.2l-1.1,12.7c0,0-0.2,2.4,3,4.3
		c3.2,1.9,77.8,44.2,77.8,44.2s6.7,3.9,12,2.8l4.5,0.2V738.2z"/>
	<linearGradient id="SVGID_8_" gradientUnits="userSpaceOnUse" x1="320.9625" y1="501.7004" x2="397.6175" y2="501.7004">
		<stop  offset="0" style="stop-color:#3C7BED"/>
		<stop  offset="1" style="stop-color:#2FA9FF"/>
	</linearGradient>
	<path class="st61" d="M349.1,559.7c-4.1,2.3-8.3,4.6-12.9,5.3c-4.6,0.7-9.8-0.5-12.7-4.3c-2.3-3-2.6-7-2.6-10.8
		c0.2-12.8,3.7-25.4,8.1-37.4c4.3-11.8,9.3-23.3,15-34.4c4.7-9.1,9.7-17.7,17.6-24.2c10.3-8.5,22.6-15.7,35.9-15.7
		c-11.8,6.6-20.7,17.5-27.1,29.4s-10.4,24.9-14.3,37.9C350.7,523.5,350.2,540.9,349.1,559.7z"/>
	<linearGradient id="SVGID_9_" gradientUnits="userSpaceOnUse" x1="344.8384" y1="536.6504" x2="611.4276" y2="536.6504">
		<stop  offset="0" style="stop-color:#3C7BED"/>
		<stop  offset="1" style="stop-color:#2567DF"/>
	</linearGradient>
	<path class="st62" d="M585.7,396.6c6.7,0.5,13.5-0.1,20.1-1.8c2.9,15.7,5.6,31.7,5.7,47.7s-2.7,32.2-10.6,46.1
		c-4.2,7.5-9.9,14.1-16,20.2c-5.6,5.5-11.7,10.6-18.7,14.2c-7,3.5-15,5.4-22.8,4.3c-5,1.5-9.8,3.3-14.8,4.8
		c-5.1,1.6-10.4,3.2-14.7,6.4c-5.5,4.1-9,10.3-11.5,16.7c-8.7,21.3-8.9,46.1-1,67.7c-7.9,20.2-24.8,36.4-44.5,45.3
		c-10.7,4.8-22.3,7.4-34,9c-10.4,1.4-21,2.2-31.3,0.1s-20.3-7.1-26.6-15.5c-8.7-11.6-15.1-24.9-18.5-39c-4-16.4,0.7-33.6,0.6-50.5
		c-0.1-10.5-0.2-21.1,0.6-31.6c1-13.4,3.6-26.8,7.5-39.6c2.9-9.6,7.9-18.4,11.7-27.7c4.4-10.7,9.2-21.9,18.3-29.1
		c11-8.6,26-9.6,40-10.2c-3.5,1.9-7.4,4.5-7.6,8.4c-0.1,2.6,1.7,5,3.9,6.4c2.2,1.4,4.9,1.9,7.4,2.3c10,1.4,20.2,1,30-1.1
		c1.6-0.4,3.2-0.8,4.5-1.7c1.3-1,2.2-2.6,1.9-4.2c-0.3-1.3-1.3-2.3-2.1-3.3c-0.8-1-1.5-2.4-1-3.7c0.5-1.2,2.8-1.4,3-0.1
		c22,7.3,44.4,13.7,66.3,21c5.9,1.9,11.8,3.9,18,3.7c9.2-0.2,18-5.3,23.8-12.5c5.9-7.1,9.1-16.2,10.7-25.3
		C585.6,414.7,585.7,405.8,585.7,396.6z"/>
	<g>
		<path class="st63" d="M381.8,622.4c0,0,3.2-8.4,7.3-6v99.7c0,0-2.4,8,7.3,9.1v7.7c0,0-10.4,2.2-14.6-4.5V622.4z"/>
		<path class="st51" d="M381.8,622.4l-14.6-7.6v103.1c0,0,5,7.8,14.6,10.4V622.4z"/>
		<path class="st51" d="M331.8,597.9c0,0,0.2,16.6,16.3,25.2s71.5,41.5,71.5,41.5s10.4,5,12-1.6v-40.4c0,0,0.7-9.1-6.4-17.2
			c-0.8-1-1.8-1.9-2.9-2.8l-77.9-45.2c0,0-9.3-4.5-12.7,6.8V597.9z"/>
		<path class="st51" d="M437.4,598.1c0,0,4.6,4.3,5.6,8.2l-12.4,8.5c0,0-2.4-6.6-5.3-9.4L437.4,598.1z"/>
		<path class="st64" d="M445.3,650.1v-37c0,0,0.8-4.8-2.3-6.8l-12.4,8.5c0,0,2.7,4.8,2.5,13.4s0,35.8,0,35.8
			S445.3,658.7,445.3,650.1z"/>
	</g>
	<path class="st65" d="M490.4,879.3c0,0,0.1,5.8,6.2,5.4c0,0,4.1,1.2,6.4-4.6l36.5,17.7c0,0,4.4,4.2,0,5.2c-4.4,1.1-35.2,1.2-49-2.7
		C490.4,900.2,479.1,895.5,490.4,879.3z"/>
	<path class="st65" d="M446.1,831.1c0,0,5.6,7.7,12,1.3l21.3,1.5c0,0,5.9,1.7,0.7,4.6c-5.2,2.9-26.4,14.3-26.4,14.3s-8.1,2.4-10-2.2
		l1.2-18.8C444.9,831.9,444.7,830.7,446.1,831.1z"/>
	<path class="st66" d="M512.9,721.7L460,823c0,0-5.9,5-13.3,0.5l3.2-72.4l55-31.6L512.9,721.7z"/>
	<path class="st67" d="M493.5,868.6c0,0,4.2,6.6,13.3,2.7l34.5-52.3l31.3-54.9l20.9-41.3c0,0,3-8.3-3.1-15.6
		c-5.9-7.1-23.5-31.3-35.5-42.6c-12-11.3-30.3-29.9-42.5-35.9c0,0-8.7-6.3-10.9-6.1l-25.2,33c0,0-2.6,2.2-7.4,5.9
		c0,0-21.2,10.8-29,12.5c-7.8,1.7-18.5,3.3-24,4.1c-5.5,0.8-26.7-1.3-26.7-1.3v21.5c0,0,35.3,16.1,51.5,15.5c0,0,33.5-1.5,47.6,1.5
		c0,0,33.6,7.8,37.3,13.1l0.9,0.5c0,0-7.4,10.2-13,31.5c-5.6,21.3-9,36.5-9.7,39.5c-0.7,3.1-7.2,39.7-7.2,39.7
		S493.2,864.6,493.5,868.6z"/>
	<path class="st67" d="M358.2,651.3c0,0,7.5,12.2,9.1,12.9v11.9C367.2,676.1,357.3,658.1,358.2,651.3z"/>
	<path class="st68" d="M597.7,346.5c0.5,3,2.7,5.4,4.6,7.8c7.5,9.8,9.9,23.4,6.1,35.1c-0.5,1.7-1.2,3.4-2.7,4.4
		c-2.3,1.6-5.4,0.7-8.2,0.3c-4.2-0.6-8.5,0.2-12.3,2.2c-0.6-1.9-1.3-3.8-1.9-5.8c-0.9-2.8-1.8-5.5-2.3-8.4
		c-0.9-5.6-0.2-11.4,2.1-16.5c0.6-1.3,1.2-2.5,1.9-3.7c0.6-1,1.1-2.1,1.7-3.1c2-3.7,3.5-7.6,4.5-11.7c0.5-1.8,0.5-3.8,1.1-5.6
		c0.4-1.2,0.8-3.2,3-3.2C598.3,339.4,597.3,344.1,597.7,346.5z"/>
	<path class="st68" d="M494.7,356.9c1.5,12.9,0.1,26-3.9,38.3c-2.2,6.9-5.4,13.6-10.3,18.9c-4.9,5.3-11.7,9.1-18.9,9.3
		c-1.3,6.8-0.6,14.1,3.7,20.5c0.6,0.9,0.4,2.1-0.1,3.2c-3.3,3.3-10.4,4.3-16,4.9c-5.6,0.6-11.3,0.4-16.9,0.1c-2.6-0.1-5.2-0.3-7.7-1
		c-2.5-0.8-4.9-2.2-6.2-4.4c-1.4-2.2-1.6-5.3,0-7.4c1.4-1.9,3.8-2.7,5.5-4.2c5.5-4.8,3.5-14.8,9.2-19.4c3.3-11.6,13-20.1,18.7-30.8
		c3.7-6.9,5.8-14.8,11.2-20.4c5.2-5.3,12.6-7.6,19.7-9.8c2.1-0.6,4.2-1.3,6.4-1.1C491.1,353.7,494.4,354.8,494.7,356.9z"/>
	<path class="st69" d="M510.6,342.2c0.5,3.2-0.8,6.7-3.4,8.7c-2.9,2.3-6.9,2.6-10.4,4.1c-4.8,2.1-8.3,6.9-8.9,12.1
		c-0.4,3.2,0.3,6.5,0.5,9.7c0.2,3.2,0,6.7-2,9.3c-2,2.6-6.1,3.7-8.6,1.6c-1.7-1.4-2.3-4-4.3-5c-2-1-4.7,0.3-5.8,2.3
		c-1.1,2-1,4.4-0.6,6.7c0.4,2.3,0.9,4.5,0.8,6.8c-0.3,3.1-2,6-4.2,8.3c-2.2,2.2-5,3.9-7.6,5.5c-2.9,1.8-5.8,3.5-9,4.5
		c-3.2,1-6.8,1.2-9.9-0.1c-3.5-1.5-5.9-4.9-7.9-8.2c-9.2-16.1-11.5-36.4-4.3-53.4c7.2-17.1,24.2-30,42.8-30.6c7-0.2,14,1.2,20.7,3.5
		c5.6,1.9,12.1,4.1,17.2,7.3C508.1,336.7,510.1,339.4,510.6,342.2z"/>
</g>
</svg>
